<svg xmlns="http://www.w3.org/2000/svg" width="64" height="64" viewBox="0 0 64 64" fill="none">
  <defs>
    <linearGradient id="dimGrad" x1="8" y1="8" x2="56" y2="56" gradientUnits="userSpaceOnUse">
      <stop offset="0%" stop-color="#2563eb"/>
      <stop offset="55%" stop-color="#0ea5e9"/>
      <stop offset="100%" stop-color="#06b6d4"/>
    </linearGradient>
    <linearGradient id="dimGradSoft" x1="8" y1="8" x2="56" y2="56" gradientUnits="userSpaceOnUse">
      <stop offset="0%" stop-color="#2563eb" stop-opacity="0.18"/>
      <stop offset="100%" stop-color="#06b6d4" stop-opacity="0.18"/>
    </linearGradient>
  </defs>
  <!-- soft rounded backdrop -->
  <rect x="2" y="2" width="60" height="60" rx="16" fill="url(#dimGradSoft)"/>
  <!-- brain mark -->
  <g transform="translate(8 8) scale(2)" stroke="url(#dimGrad)" stroke-width="1.9" stroke-linecap="round" stroke-linejoin="round">
    <path d="M12 18V5"/>
    <path d="M15 13a4.17 4.17 0 0 1-3-4 4.17 4.17 0 0 1-3 4"/>
    <path d="M17.598 6.5A3 3 0 1 0 12 5a3 3 0 1 0-5.598 1.5"/>
    <path d="M17.997 5.125a4 4 0 0 1 2.526 5.77"/>
    <path d="M18 18a4 4 0 0 0 2-7.464"/>
    <path d="M19.967 17.483A4 4 0 1 1 12 18a4 4 0 1 1-7.967-.517"/>
    <path d="M6 18a4 4 0 0 1-2-7.464"/>
    <path d="M6.003 5.125a4 4 0 0 0-2.526 5.77"/>
  </g>
  <!-- verified tick badge -->
  <circle cx="49" cy="49" r="11" fill="#10b981"/>
  <path d="M44 49.2l3.4 3.4L54.5 45" stroke="#ffffff" stroke-width="2.6" stroke-linecap="round" stroke-linejoin="round" fill="none"/>
</svg>

